<?xml version="1.0" encoding="utf-8"?>
<!-- Generator: Adobe Illustrator 26.3.1, SVG Export Plug-In . SVG Version: 6.00 Build 0)  -->
<svg version="1.1" id="Capa_1" xmlns="http://www.w3.org/2000/svg" xmlns:xlink="http://www.w3.org/1999/xlink" x="0px" y="0px"
	 viewBox="0 0 430 250" style="enable-background:new 0 0 430 250;" xml:space="preserve">
<style type="text/css">
	.st0{fill:#375171;}
	.st1{fill:#8ECA74;}
</style>
<g id="BASE__x26__Guies">
</g>
<g id="Marca">
	<path class="st0" d="M224.81,105.33c0-1,0.2-1.87,0.6-2.6s0.94-1.3,1.63-1.7s1.46-0.6,2.32-0.6c1.18,0,2.11,0.36,2.8,1.08
		s1.04,1.74,1.04,3.07v13.85h5.47v-15.36c0-1.71-0.33-3.15-0.99-4.35c-0.66-1.19-1.57-2.07-2.71-2.65
		c-1.15-0.57-2.41-0.86-3.79-0.86c-1.53,0-2.84,0.29-3.93,0.88s-1.99,1.46-2.69,2.6l-0.62-2.91h-4.54v22.64h5.43v-13.09H224.81z
		 M211.62,139.9c-0.68-1.18-1.57-2.06-2.69-2.65s-2.4-0.88-3.84-0.88c-2,0-3.74,0.51-5.23,1.52c-1.49,1.02-2.62,2.42-3.4,4.21
		c-0.78,1.79-1.17,3.81-1.17,6.04c0,2.12,0.35,4.07,1.04,5.87c0.69,1.79,1.76,3.24,3.2,4.32c1.44,1.09,3.27,1.63,5.47,1.63
		c1.59,0,2.97-0.32,4.15-0.97s2.07-1.65,2.69-3l0.75,3.57h4.59v-22.64h-4.59L211.62,139.9z M211.09,151.63
		c-0.41,1-1.03,1.78-1.85,2.34s-1.84,0.84-3.04,0.84c-1.18,0-2.16-0.27-2.96-0.82c-0.79-0.54-1.39-1.31-1.79-2.29
		c-0.4-0.99-0.6-2.11-0.6-3.38c0-1.32,0.21-2.49,0.62-3.51c0.41-1.02,1.01-1.8,1.81-2.36c0.79-0.56,1.78-0.84,2.96-0.84
		c1.18,0,2.18,0.29,3,0.86s1.44,1.36,1.85,2.36s0.62,2.12,0.62,3.35C211.71,149.49,211.5,150.63,211.09,151.63z M229.91,137.49
		c-0.88,0.54-1.57,1.33-2.07,2.36l-0.62-2.91h-4.54v22.64h5.43V147c0-1.71,0.43-3,1.3-3.88s1.96-1.32,3.29-1.32
		c0.76,0,1.56,0.15,2.38,0.44v-5.29c-0.74-0.18-1.43-0.26-2.07-0.26C231.82,136.68,230.79,136.94,229.91,137.49z M214.84,95.79
		h-5.47v22.64h5.47V95.79z M211.86,86.66c-1.46,1.24-2.96,2.34-4.52,3.31l1.99,3.09c1.68-0.73,3.34-1.68,4.99-2.82
		c1.65-1.15,3.06-2.38,4.24-3.71l-3.13-3.4C214.5,84.25,213.32,85.43,211.86,86.66z M333.9,137.22c-1.15-0.57-2.41-0.86-3.79-0.86
		c-1.53,0-2.84,0.29-3.93,0.88c-1.09,0.59-1.99,1.46-2.69,2.6l-0.62-2.91h-4.54v22.64h5.43v-13.1c0-1,0.2-1.87,0.6-2.6
		c0.4-0.73,0.94-1.3,1.63-1.7s1.46-0.6,2.32-0.6c1.18,0,2.11,0.36,2.8,1.08s1.04,1.74,1.04,3.07v13.85h5.47v-15.36
		c0-1.71-0.33-3.15-0.99-4.35C335.95,138.68,335.05,137.79,333.9,137.22z M356.89,139.9c-0.68-1.18-1.57-2.06-2.69-2.65
		s-2.4-0.88-3.84-0.88c-2,0-3.74,0.51-5.23,1.52s-2.62,2.42-3.4,4.21c-0.78,1.79-1.17,3.81-1.17,6.04c0,2.12,0.34,4.07,1.04,5.87
		c0.69,1.79,1.76,3.24,3.2,4.32c1.44,1.09,3.27,1.63,5.47,1.63c1.59,0,2.97-0.32,4.15-0.97s2.07-1.65,2.69-3l0.75,3.57h4.59v-22.64
		h-4.59L356.89,139.9z M356.36,151.63c-0.41,1-1.03,1.78-1.85,2.34s-1.84,0.84-3.04,0.84c-1.18,0-2.16-0.27-2.96-0.82
		c-0.79-0.54-1.39-1.31-1.79-2.29c-0.4-0.99-0.6-2.11-0.6-3.38c0-1.32,0.21-2.49,0.62-3.51c0.41-1.02,1.01-1.8,1.81-2.36
		c0.79-0.56,1.78-0.84,2.96-0.84s2.18,0.29,3,0.86s1.44,1.36,1.85,2.36s0.62,2.12,0.62,3.35
		C356.98,149.49,356.77,150.63,356.36,151.63z M185.65,111.88c-1.49,1.07-3.21,1.61-5.19,1.61c-1.62,0-3.1-0.37-4.43-1.1
		c-1.34-0.73-2.41-1.9-3.22-3.49s-1.21-3.57-1.21-5.96c0-2.32,0.4-4.28,1.19-5.87c0.79-1.59,1.87-2.77,3.22-3.55
		s2.84-1.17,4.46-1.17c1.77,0,3.27,0.42,4.52,1.26s2.07,1.98,2.45,3.42l5.38-1.72c-0.77-2.71-2.26-4.8-4.48-6.29
		c-2.22-1.48-4.82-2.23-7.79-2.23c-2.59,0-5.02,0.6-7.3,1.81s-4.12,3.04-5.52,5.49c-1.4,2.46-2.1,5.45-2.1,8.98s0.67,6.5,2.01,8.91
		s3.11,4.21,5.32,5.38c2.21,1.18,4.62,1.76,7.24,1.76c3.15,0,5.96-0.83,8.45-2.49c2.49-1.66,4.2-3.98,5.14-6.95l-5.16-2.21
		C188.13,109.35,187.14,110.8,185.65,111.88z M310.29,137.97c-1.68-1.07-3.66-1.61-5.96-1.61c-2.29,0-4.29,0.54-5.98,1.61
		s-2.98,2.52-3.86,4.32c-0.88,1.81-1.32,3.77-1.32,5.89s0.44,4.07,1.32,5.87c0.88,1.79,2.17,3.23,3.86,4.3
		c1.69,1.07,3.68,1.61,5.98,1.61c2.29,0,4.28-0.54,5.96-1.61s2.96-2.51,3.86-4.3c0.9-1.79,1.35-3.75,1.35-5.87s-0.45-4.08-1.35-5.89
		C313.26,140.49,311.97,139.05,310.29,137.97z M309.3,151.52c-0.43,0.99-1.07,1.77-1.92,2.36s-1.87,0.88-3.04,0.88
		c-1.21,0-2.24-0.29-3.09-0.88c-0.85-0.59-1.49-1.38-1.9-2.36c-0.41-0.99-0.62-2.1-0.62-3.33s0.21-2.35,0.62-3.35
		s1.04-1.79,1.9-2.38c0.85-0.59,1.88-0.88,3.09-0.88c1.18,0,2.19,0.29,3.04,0.88c0.85,0.59,1.49,1.38,1.92,2.38
		c0.43,1,0.64,2.12,0.64,3.35S309.73,150.54,309.3,151.52z M269.87,117.11c1.76-1.15,3.04-2.79,3.84-4.94l-4.46-2.03
		c-0.47,1.15-1.11,2.01-1.92,2.58c-0.81,0.57-1.8,0.86-2.98,0.86c-1.09,0-2.04-0.24-2.87-0.73c-0.82-0.49-1.47-1.22-1.94-2.21
		c-0.47-0.98-0.71-2.18-0.71-3.6c0-1.38,0.23-2.58,0.68-3.6c0.46-1.01,1.1-1.77,1.92-2.27s1.78-0.75,2.87-0.75
		c1.15,0,2.12,0.31,2.91,0.93s1.37,1.54,1.72,2.78l4.68-1.81c-0.65-2.5-1.82-4.31-3.51-5.43s-3.61-1.68-5.76-1.68
		c-2,0-3.85,0.45-5.54,1.35s-3.04,2.24-4.04,4.04c-1,1.79-1.5,3.99-1.5,6.57c0,2.56,0.48,4.71,1.43,6.44
		c0.96,1.74,2.25,3.04,3.88,3.91s3.41,1.3,5.32,1.3C266.12,118.83,268.1,118.25,269.87,117.11z M250.57,153.86
		c-0.81,0.57-1.8,0.86-2.98,0.86c-1.09,0-2.04-0.24-2.87-0.73c-0.82-0.49-1.47-1.22-1.94-2.21c-0.47-0.98-0.71-2.18-0.71-3.6
		c0-1.38,0.23-2.58,0.68-3.6c0.46-1.02,1.1-1.77,1.92-2.27s1.78-0.75,2.87-0.75c1.15,0,2.12,0.31,2.91,0.93s1.37,1.54,1.72,2.78
		l4.68-1.81c-0.65-2.5-1.82-4.31-3.51-5.43s-3.61-1.68-5.76-1.68c-2,0-3.85,0.45-5.54,1.35c-1.69,0.9-3.04,2.24-4.04,4.04
		c-1,1.79-1.5,3.99-1.5,6.57c0,2.56,0.48,4.71,1.43,6.44c0.96,1.74,2.25,3.04,3.88,3.9c1.63,0.87,3.4,1.3,5.32,1.3
		c2.21,0,4.19-0.57,5.96-1.72s3.04-2.79,3.84-4.94l-4.46-2.03C252.02,152.43,251.38,153.29,250.57,153.86z M274.83,137.49
		c-1.46-0.75-3.07-1.12-4.83-1.12c-1.94,0-3.73,0.46-5.36,1.37c-1.63,0.91-2.93,2.27-3.91,4.08s-1.46,3.96-1.46,6.46
		c0,2.53,0.49,4.67,1.46,6.42s2.27,3.07,3.88,3.95c1.62,0.88,3.4,1.32,5.34,1.32s3.75-0.45,5.43-1.35c1.68-0.9,3.06-2.2,4.15-3.91
		l-3.93-2.69c-0.62,0.97-1.35,1.69-2.18,2.16c-0.84,0.47-1.85,0.71-3.02,0.71c-1.77,0-3.18-0.55-4.26-1.65
		c-0.67-0.69-1.13-1.62-1.38-2.8h14.86v-3.62c0-2.35-0.43-4.31-1.3-5.87C277.45,139.4,276.29,138.24,274.83,137.49z M264.69,145.99
		c0.11-0.64,0.29-1.23,0.52-1.74c0.46-1.01,1.09-1.78,1.9-2.29s1.77-0.77,2.89-0.77c1.35,0,2.42,0.41,3.2,1.24
		c0.78,0.82,1.17,2.02,1.17,3.57h-9.68L264.69,145.99L264.69,145.99z M288.86,154.41c-0.46-0.47-0.68-1.22-0.68-2.25v-24.22h-5.43
		v25.24c0,2.27,0.55,3.96,1.65,5.1c1.1,1.13,2.54,1.7,4.3,1.7c1.09,0,2.25-0.24,3.49-0.71v-4.41c-0.56,0.18-1.06,0.26-1.5,0.26
		C289.93,155.11,289.32,154.88,288.86,154.41z M248.15,111.02V95.8h-5.47v16.24c0,2.27,0.56,3.96,1.68,5.1
		c1.12,1.13,2.54,1.7,4.28,1.7c1.09,0,2.26-0.24,3.53-0.71v-4.41c-0.5,0.15-0.99,0.22-1.46,0.22c-0.79,0-1.42-0.23-1.88-0.71
		C248.38,112.75,248.15,112.02,248.15,111.02z M202.62,118.83c1.09,0,2.25-0.24,3.49-0.71v-4.41c-0.56,0.18-1.06,0.27-1.5,0.27
		c-0.77,0-1.38-0.24-1.83-0.71c-0.46-0.47-0.68-1.22-0.68-2.25V86.8h-5.43v25.24c0,2.27,0.55,3.96,1.65,5.1
		C199.42,118.26,200.85,118.83,202.62,118.83z M245.42,92.93c1.09,0,1.98-0.35,2.67-1.04s1.04-1.57,1.04-2.62
		c0-1.06-0.35-1.93-1.04-2.63c-0.69-0.69-1.58-1.04-2.67-1.04c-1.06,0-1.93,0.35-2.63,1.04c-0.69,0.69-1.04,1.57-1.04,2.63
		s0.35,1.93,1.04,2.62S244.36,92.93,245.42,92.93z M187.04,142.85c1.21-0.56,2.16-1.4,2.87-2.54c0.71-1.13,1.06-2.38,1.06-3.73
		c0-1.38-0.34-2.68-1.01-3.88c-0.68-1.21-1.72-2.19-3.13-2.96c-1.41-0.76-3.15-1.15-5.21-1.15h-12.53v30.98h12.88
		c2.21,0,4.12-0.46,5.74-1.37c1.62-0.91,2.84-2.07,3.66-3.49c0.82-1.41,1.24-2.9,1.24-4.46c0-1.65-0.48-3.16-1.43-4.52
		C190.21,144.38,188.84,143.41,187.04,142.85z M174.82,133.8h6.35c1.24,0,2.19,0.35,2.87,1.06c0.68,0.71,1.02,1.56,1.02,2.56
		c0,0.62-0.15,1.21-0.44,1.77c-0.29,0.56-0.74,1.02-1.32,1.37c-0.59,0.35-1.29,0.53-2.12,0.53h-6.35L174.82,133.8L174.82,133.8z
		 M186.12,152.15c-0.35,0.63-0.87,1.15-1.54,1.57c-0.68,0.41-1.5,0.62-2.47,0.62h-7.28v-8.43h7.19c1,0,1.85,0.2,2.54,0.6
		c0.69,0.4,1.21,0.91,1.57,1.54c0.35,0.63,0.53,1.32,0.53,2.05S186.47,151.5,186.12,152.15z"/>
	<path class="st1" d="M72.45,123.18c0,14.84,12.07,26.91,26.91,26.91v-6.33c-11.35,0-20.58-9.23-20.58-20.58s9.23-20.58,20.58-20.58
		v-6.33C84.52,96.27,72.45,108.35,72.45,123.18z M56.62,123.18c0,23.57,19.18,42.74,42.75,42.74v-6.33
		c-20.08,0-36.42-16.34-36.42-36.41c0-20.08,16.34-36.42,36.42-36.42v-6.33C75.79,80.44,56.62,99.61,56.62,123.18z M127.86,146.93
		c0-10.48-8.52-19-19-19v6.33c6.98,0,12.67,5.68,12.67,12.67s-5.68,12.67-12.67,12.67v6.33
		C119.34,165.93,127.86,157.41,127.86,146.93z M143.7,99.43c0-19.21-15.62-34.83-34.83-34.83v6.33c15.71,0,28.5,12.78,28.5,28.5
		c0,7.29-2.8,14.27-7.76,19.53c-2.67-1.99-5.64-3.6-8.82-4.76c4.31-3.49,7.08-8.81,7.08-14.77c0-10.48-8.52-19-19-19v6.33
		c6.98,0,12.67,5.68,12.67,12.67c0,6.98-5.68,12.67-12.67,12.67v6.33c15.71,0,28.5,12.79,28.5,28.5c0,15.72-12.79,28.5-28.5,28.5
		v6.33c19.21,0,34.83-15.62,34.83-34.83c0-9.17-3.57-17.51-9.38-23.74l0,0C140.31,116.77,143.7,108.29,143.7,99.43z"/>
</g>
<g id="Indicacions__x26__geometria">
</g>
</svg>
