<svg xmlns="http://www.w3.org/2000/svg" width="64" height="64" viewBox="34 57 132 132">
  <path fill="#8ECA74" d="M72.45,123.18c0,14.84,12.07,26.91,26.91,26.91v-6.33c-11.35,0-20.58-9.23-20.58-20.58s9.23-20.58,20.58-20.58v-6.33C84.52,96.27,72.45,108.35,72.45,123.18z M56.62,123.18c0,23.57,19.18,42.74,42.75,42.74v-6.33c-20.08,0-36.42-16.34-36.42-36.41c0-20.08,16.34-36.42,36.42-36.42v-6.33C75.79,80.44,56.62,99.61,56.62,123.18z M127.86,146.93c0-10.48-8.52-19-19-19v6.33c6.98,0,12.67,5.68,12.67,12.67s-5.68,12.67-12.67,12.67v6.33C119.34,165.93,127.86,157.41,127.86,146.93z M143.7,99.43c0-19.21-15.62-34.83-34.83-34.83v6.33c15.71,0,28.5,12.78,28.5,28.5c0,7.29-2.8,14.27-7.76,19.53c-2.67-1.99-5.64-3.6-8.82-4.76c4.31-3.49,7.08-8.81,7.08-14.77c0-10.48-8.52-19-19-19v6.33c6.98,0,12.67,5.68,12.67,12.67c0,6.98-5.68,12.67-12.67,12.67v6.33c15.71,0,28.5,12.79,28.5,28.5c0,15.72-12.79,28.5-28.5,28.5v6.33c19.21,0,34.83-15.62,34.83-34.83c0-9.17-3.57-17.51-9.38-23.74l0,0C140.31,116.77,143.7,108.29,143.7,99.43z"/>
</svg>
